<svg xmlns="http://www.w3.org/2000/svg" viewBox="0 0 1024 1024">
<path d="M 697 806 L 696 807 L 695 807 L 694 808 L 693 808 L 690 811 L 690 812 L 689 813 L 689 821 L 690 822 L 690 823 L 692 825 L 692 826 L 693 826 L 694 827 L 695 827 L 696 828 L 875 828 L 876 827 L 878 827 L 880 825 L 881 825 L 881 824 L 883 822 L 883 820 L 884 819 L 884 814 L 883 813 L 883 812 L 881 810 L 881 809 L 880 808 L 879 808 L 878 807 L 877 807 L 876 806 Z" fill="white"/><path d="M 690 732 L 689 733 L 688 733 L 684 737 L 684 738 L 683 739 L 683 741 L 682 742 L 682 744 L 683 745 L 683 748 L 685 750 L 685 751 L 686 752 L 687 752 L 688 753 L 689 753 L 690 754 L 874 754 L 875 753 L 876 753 L 878 751 L 879 751 L 879 750 L 881 748 L 881 746 L 882 745 L 882 741 L 881 740 L 881 739 L 880 738 L 880 737 L 877 734 L 876 734 L 875 733 L 874 733 L 873 732 Z" fill="white"/><path d="M 667 660 L 666 661 L 665 661 L 664 662 L 663 662 L 661 664 L 661 665 L 660 666 L 660 667 L 659 668 L 659 674 L 660 675 L 660 676 L 662 678 L 662 679 L 663 680 L 664 680 L 665 681 L 666 681 L 667 682 L 875 682 L 876 681 L 877 681 L 878 680 L 879 680 L 882 677 L 882 675 L 883 674 L 883 667 L 881 665 L 881 664 L 879 662 L 878 662 L 877 661 L 876 661 L 875 660 Z" fill="white"/><path d="M 627 586 L 626 587 L 625 587 L 621 591 L 621 592 L 620 593 L 620 595 L 619 596 L 619 599 L 620 600 L 620 602 L 622 604 L 622 605 L 623 605 L 625 607 L 626 607 L 627 608 L 629 608 L 630 609 L 874 609 L 875 608 L 877 608 L 878 607 L 879 607 L 881 605 L 881 604 L 883 602 L 883 600 L 884 599 L 884 595 L 883 594 L 883 592 L 882 591 L 882 590 L 880 588 L 879 588 L 878 587 L 876 587 L 875 586 Z" fill="white"/><path d="M 741 357 L 739 359 L 739 360 L 738 361 L 739 362 L 739 366 L 740 367 L 740 369 L 741 370 L 741 372 L 742 373 L 742 375 L 743 376 L 743 378 L 744 379 L 744 381 L 745 382 L 745 384 L 746 385 L 746 387 L 747 388 L 747 390 L 748 391 L 748 393 L 749 394 L 749 395 L 750 396 L 750 399 L 751 400 L 751 402 L 752 403 L 752 404 L 753 405 L 753 407 L 754 408 L 754 410 L 755 411 L 755 413 L 756 414 L 756 416 L 757 417 L 757 419 L 758 420 L 758 422 L 759 423 L 759 425 L 760 426 L 760 428 L 761 429 L 761 431 L 762 432 L 762 434 L 763 435 L 763 436 L 764 437 L 764 440 L 765 441 L 765 442 L 766 443 L 766 445 L 767 446 L 767 448 L 768 449 L 768 451 L 769 452 L 769 454 L 770 455 L 770 457 L 771 458 L 771 459 L 772 460 L 772 462 L 773 463 L 773 465 L 774 466 L 774 468 L 775 469 L 775 471 L 776 472 L 776 473 L 777 474 L 777 477 L 778 478 L 778 480 L 779 481 L 779 483 L 780 484 L 780 486 L 781 487 L 781 489 L 782 490 L 782 492 L 783 493 L 783 495 L 784 496 L 784 498 L 785 499 L 785 500 L 786 501 L 786 503 L 787 504 L 787 506 L 788 507 L 788 509 L 789 510 L 789 512 L 790 513 L 790 515 L 791 516 L 791 517 L 792 518 L 792 519 L 795 522 L 798 522 L 799 523 L 821 523 L 822 522 L 823 522 L 827 518 L 827 517 L 828 516 L 828 514 L 829 513 L 829 511 L 830 510 L 830 509 L 831 508 L 831 505 L 832 504 L 832 502 L 833 501 L 833 499 L 834 498 L 834 496 L 835 495 L 835 493 L 836 492 L 836 490 L 837 489 L 837 487 L 838 486 L 838 484 L 839 483 L 839 481 L 840 480 L 840 478 L 841 477 L 841 475 L 842 474 L 842 472 L 843 471 L 843 469 L 844 468 L 844 466 L 845 465 L 845 463 L 846 462 L 846 460 L 847 459 L 847 457 L 848 456 L 848 454 L 849 453 L 849 451 L 850 450 L 850 448 L 851 447 L 851 444 L 852 443 L 852 442 L 853 441 L 853 438 L 854 437 L 854 435 L 855 434 L 855 432 L 856 431 L 856 429 L 857 428 L 857 426 L 858 425 L 858 423 L 859 422 L 859 420 L 860 419 L 860 417 L 861 416 L 861 414 L 862 413 L 862 411 L 863 410 L 863 407 L 864 406 L 864 404 L 865 403 L 865 401 L 866 400 L 866 398 L 867 397 L 867 395 L 868 394 L 868 392 L 869 391 L 869 389 L 870 388 L 870 386 L 871 385 L 871 383 L 872 382 L 872 379 L 873 378 L 873 377 L 874 376 L 874 374 L 875 373 L 875 371 L 876 370 L 876 368 L 877 367 L 877 365 L 878 364 L 878 358 L 877 357 L 853 357 L 850 360 L 850 361 L 849 362 L 849 363 L 848 364 L 848 366 L 847 367 L 847 369 L 846 370 L 846 372 L 845 373 L 845 375 L 844 376 L 844 378 L 843 379 L 843 381 L 842 382 L 842 384 L 841 385 L 841 387 L 840 388 L 840 390 L 839 391 L 839 393 L 838 394 L 838 396 L 837 397 L 837 400 L 836 401 L 836 403 L 835 404 L 835 406 L 834 407 L 834 409 L 833 410 L 833 412 L 832 413 L 832 415 L 831 416 L 831 418 L 830 419 L 830 422 L 829 423 L 829 425 L 828 426 L 828 428 L 827 429 L 827 431 L 826 432 L 826 434 L 825 435 L 825 438 L 824 439 L 824 440 L 823 441 L 823 444 L 822 445 L 822 447 L 821 448 L 821 450 L 820 451 L 820 453 L 819 454 L 819 457 L 818 458 L 818 460 L 817 461 L 817 463 L 816 464 L 816 466 L 815 467 L 815 469 L 814 470 L 814 473 L 813 474 L 813 476 L 812 477 L 812 480 L 811 481 L 811 483 L 810 484 L 810 485 L 809 486 L 808 485 L 808 482 L 807 481 L 807 479 L 806 478 L 806 476 L 805 475 L 805 472 L 804 471 L 804 469 L 803 468 L 803 466 L 802 465 L 802 463 L 801 462 L 801 459 L 800 458 L 800 455 L 799 454 L 799 453 L 798 452 L 798 449 L 797 448 L 797 446 L 796 445 L 796 443 L 795 442 L 795 440 L 794 439 L 794 437 L 793 436 L 793 434 L 792 433 L 792 432 L 791 431 L 791 428 L 790 427 L 790 426 L 789 425 L 789 423 L 788 422 L 788 420 L 787 419 L 787 417 L 786 416 L 786 414 L 785 413 L 785 411 L 784 410 L 784 408 L 783 407 L 783 405 L 782 404 L 782 402 L 781 401 L 781 399 L 780 398 L 780 396 L 779 395 L 779 393 L 778 392 L 778 390 L 777 389 L 777 387 L 776 386 L 776 384 L 775 383 L 775 381 L 774 380 L 774 378 L 773 377 L 773 375 L 772 374 L 772 372 L 771 371 L 771 369 L 770 368 L 770 366 L 769 365 L 769 363 L 768 362 L 768 360 L 765 357 Z" fill="white"/><path d="M 653 355 L 652 356 L 643 356 L 642 357 L 639 357 L 638 358 L 636 358 L 635 359 L 633 359 L 632 360 L 630 360 L 629 361 L 628 361 L 627 362 L 626 362 L 625 363 L 624 363 L 622 365 L 621 365 L 618 368 L 617 368 L 607 378 L 607 379 L 603 383 L 603 384 L 601 386 L 601 387 L 600 388 L 600 389 L 599 390 L 599 391 L 598 392 L 598 393 L 597 394 L 597 395 L 596 396 L 596 397 L 595 398 L 595 400 L 594 401 L 594 402 L 593 403 L 593 405 L 592 406 L 592 408 L 591 409 L 591 413 L 590 414 L 590 418 L 589 419 L 589 426 L 588 427 L 588 436 L 587 437 L 587 444 L 588 445 L 588 456 L 589 457 L 589 461 L 590 462 L 590 466 L 591 467 L 591 470 L 592 471 L 592 474 L 593 475 L 593 477 L 594 478 L 594 479 L 595 480 L 595 482 L 596 483 L 596 484 L 597 485 L 597 486 L 598 487 L 598 488 L 599 489 L 599 490 L 600 491 L 600 492 L 601 493 L 601 494 L 603 496 L 603 497 L 606 500 L 606 501 L 612 507 L 612 508 L 613 508 L 618 513 L 619 513 L 622 516 L 623 516 L 625 518 L 626 518 L 627 519 L 628 519 L 629 520 L 630 520 L 631 521 L 632 521 L 633 522 L 634 522 L 635 523 L 637 523 L 638 524 L 640 524 L 641 525 L 645 525 L 646 526 L 652 526 L 653 527 L 670 527 L 671 526 L 673 526 L 674 525 L 677 525 L 678 524 L 681 524 L 682 523 L 684 523 L 685 522 L 686 522 L 687 521 L 688 521 L 689 520 L 690 520 L 691 519 L 692 519 L 694 517 L 695 517 L 697 515 L 698 515 L 710 503 L 710 502 L 713 499 L 713 498 L 714 497 L 714 496 L 716 494 L 716 492 L 717 491 L 717 490 L 718 489 L 718 488 L 719 487 L 719 485 L 720 484 L 720 482 L 721 481 L 721 472 L 719 470 L 698 470 L 697 471 L 696 471 L 695 472 L 694 472 L 694 473 L 693 474 L 693 475 L 692 476 L 692 477 L 690 479 L 690 480 L 688 482 L 688 483 L 686 485 L 686 486 L 677 495 L 676 495 L 674 497 L 673 497 L 672 498 L 670 498 L 669 499 L 666 499 L 665 500 L 652 500 L 651 499 L 648 499 L 647 498 L 645 498 L 644 497 L 643 497 L 642 496 L 641 496 L 640 495 L 639 495 L 635 491 L 634 491 L 633 490 L 633 489 L 628 484 L 628 483 L 625 480 L 625 479 L 624 478 L 624 477 L 623 476 L 623 474 L 622 473 L 622 472 L 621 471 L 621 469 L 620 468 L 620 465 L 619 464 L 619 461 L 618 460 L 618 456 L 617 455 L 617 446 L 616 445 L 616 434 L 617 433 L 616 432 L 617 431 L 617 425 L 618 424 L 618 420 L 619 419 L 619 415 L 620 414 L 620 412 L 621 411 L 621 410 L 622 409 L 622 407 L 623 406 L 623 405 L 624 404 L 624 403 L 625 402 L 625 401 L 628 398 L 628 397 L 636 389 L 637 389 L 639 387 L 640 387 L 641 386 L 642 386 L 643 385 L 644 385 L 645 384 L 647 384 L 648 383 L 651 383 L 652 382 L 664 382 L 665 383 L 668 383 L 669 384 L 671 384 L 672 385 L 673 385 L 674 386 L 675 386 L 677 388 L 678 388 L 681 391 L 682 391 L 686 395 L 686 396 L 688 398 L 688 399 L 690 401 L 690 402 L 692 404 L 692 405 L 693 406 L 693 407 L 694 408 L 694 409 L 695 409 L 696 410 L 697 410 L 698 411 L 718 411 L 720 409 L 720 401 L 719 400 L 719 398 L 718 397 L 718 395 L 717 394 L 717 392 L 715 390 L 715 389 L 714 388 L 714 387 L 713 386 L 713 385 L 711 383 L 711 382 L 707 378 L 707 377 L 706 377 L 705 376 L 705 375 L 704 374 L 703 374 L 702 373 L 702 372 L 700 370 L 699 370 L 697 368 L 696 368 L 693 365 L 692 365 L 690 363 L 689 363 L 688 362 L 687 362 L 686 361 L 685 361 L 684 360 L 682 360 L 681 359 L 680 359 L 679 358 L 677 358 L 676 357 L 672 357 L 671 356 L 666 356 L 665 355 Z" fill="white"/><path d="M 331 205 L 330 206 L 323 206 L 322 207 L 318 207 L 317 208 L 316 207 L 315 208 L 312 208 L 311 209 L 308 209 L 307 210 L 305 210 L 304 211 L 301 211 L 300 212 L 298 212 L 297 213 L 295 213 L 294 214 L 292 214 L 291 215 L 290 215 L 289 216 L 287 216 L 286 217 L 285 217 L 284 218 L 283 218 L 282 219 L 281 219 L 280 220 L 279 220 L 278 221 L 277 221 L 276 222 L 275 222 L 274 223 L 273 223 L 272 224 L 271 224 L 269 226 L 268 226 L 266 228 L 265 228 L 263 230 L 262 230 L 261 231 L 260 231 L 257 234 L 256 234 L 256 235 L 255 236 L 254 236 L 248 242 L 247 242 L 245 244 L 245 245 L 242 248 L 241 248 L 241 249 L 238 252 L 238 253 L 235 256 L 235 257 L 232 260 L 232 261 L 230 263 L 230 264 L 228 266 L 228 267 L 227 268 L 227 269 L 225 271 L 225 272 L 224 273 L 224 275 L 223 276 L 223 277 L 222 278 L 222 279 L 221 280 L 221 281 L 220 282 L 220 283 L 219 284 L 219 285 L 218 286 L 218 289 L 217 290 L 217 292 L 216 293 L 216 295 L 215 296 L 215 298 L 214 299 L 214 304 L 213 305 L 213 312 L 212 313 L 212 341 L 213 342 L 213 351 L 214 352 L 214 360 L 215 361 L 215 368 L 216 369 L 215 370 L 215 371 L 216 372 L 216 376 L 217 377 L 217 380 L 218 381 L 218 382 L 217 383 L 218 384 L 218 389 L 216 391 L 215 391 L 212 394 L 211 394 L 211 395 L 206 400 L 206 401 L 204 403 L 204 404 L 203 405 L 203 406 L 202 407 L 202 408 L 201 409 L 201 411 L 200 412 L 200 415 L 199 416 L 199 419 L 198 420 L 198 437 L 199 438 L 199 443 L 200 444 L 200 447 L 201 448 L 201 451 L 202 452 L 202 455 L 203 456 L 203 458 L 204 459 L 204 461 L 205 462 L 205 463 L 206 464 L 206 466 L 207 467 L 207 468 L 208 469 L 208 470 L 209 471 L 209 472 L 210 473 L 210 474 L 211 475 L 211 476 L 213 478 L 213 479 L 216 482 L 216 483 L 222 489 L 223 489 L 226 492 L 227 492 L 228 493 L 229 493 L 231 495 L 232 495 L 233 496 L 234 496 L 236 498 L 236 501 L 237 502 L 237 503 L 238 504 L 238 507 L 239 508 L 239 510 L 240 511 L 240 513 L 241 514 L 241 516 L 242 517 L 242 519 L 243 520 L 243 522 L 244 523 L 244 524 L 245 525 L 245 526 L 246 527 L 246 529 L 247 530 L 247 531 L 248 532 L 248 533 L 249 534 L 249 535 L 250 536 L 250 537 L 251 538 L 251 539 L 252 540 L 252 541 L 254 543 L 254 544 L 256 546 L 256 547 L 258 549 L 258 550 L 261 553 L 261 554 L 263 556 L 263 557 L 264 557 L 265 558 L 265 559 L 268 562 L 268 574 L 267 575 L 267 581 L 266 582 L 266 585 L 265 586 L 265 589 L 264 590 L 264 593 L 263 594 L 263 595 L 262 596 L 262 598 L 261 599 L 261 600 L 260 601 L 260 602 L 258 604 L 258 605 L 256 607 L 256 608 L 253 611 L 253 612 L 251 614 L 249 614 L 248 615 L 247 615 L 246 616 L 244 616 L 243 617 L 242 617 L 241 618 L 239 618 L 238 619 L 236 619 L 235 620 L 234 620 L 233 621 L 231 621 L 230 622 L 228 622 L 227 623 L 225 623 L 224 624 L 223 624 L 222 625 L 220 625 L 219 626 L 217 626 L 216 627 L 214 627 L 213 628 L 211 628 L 210 629 L 209 629 L 208 630 L 206 630 L 205 631 L 203 631 L 202 632 L 200 632 L 199 633 L 197 633 L 196 634 L 194 634 L 193 635 L 192 635 L 191 636 L 189 636 L 188 637 L 186 637 L 185 638 L 183 638 L 182 639 L 180 639 L 179 640 L 177 640 L 176 641 L 174 641 L 173 642 L 172 642 L 171 643 L 169 643 L 168 644 L 167 644 L 166 645 L 164 645 L 163 646 L 162 646 L 161 647 L 159 647 L 158 648 L 157 648 L 156 649 L 155 649 L 154 650 L 153 650 L 152 651 L 151 651 L 150 652 L 149 652 L 148 653 L 147 653 L 146 654 L 145 654 L 144 655 L 143 655 L 142 656 L 141 656 L 140 657 L 139 657 L 138 658 L 137 658 L 135 660 L 134 660 L 132 662 L 131 662 L 129 664 L 128 664 L 125 667 L 124 667 L 121 670 L 120 670 L 105 685 L 105 686 L 102 689 L 102 690 L 99 693 L 99 694 L 97 696 L 97 697 L 95 699 L 95 700 L 93 702 L 93 703 L 92 704 L 92 705 L 90 707 L 90 708 L 89 709 L 89 710 L 88 711 L 88 712 L 87 713 L 87 714 L 86 715 L 86 716 L 85 717 L 85 719 L 84 720 L 84 721 L 83 722 L 83 723 L 82 724 L 82 727 L 81 728 L 81 729 L 80 730 L 80 732 L 79 733 L 79 737 L 78 738 L 78 740 L 77 741 L 77 747 L 76 748 L 76 753 L 75 754 L 75 761 L 74 762 L 74 769 L 73 770 L 73 777 L 72 778 L 72 785 L 71 786 L 71 795 L 70 796 L 71 797 L 70 798 L 70 806 L 69 807 L 69 815 L 68 816 L 68 823 L 67 824 L 67 835 L 66 836 L 66 843 L 65 844 L 65 851 L 64 852 L 64 861 L 63 862 L 63 871 L 62 872 L 62 895 L 63 896 L 63 900 L 64 901 L 64 903 L 65 904 L 65 905 L 66 906 L 66 907 L 68 909 L 68 910 L 72 914 L 72 915 L 73 916 L 74 916 L 78 920 L 79 920 L 81 922 L 82 922 L 83 923 L 85 923 L 86 924 L 88 924 L 89 925 L 91 925 L 92 926 L 93 925 L 94 926 L 103 926 L 104 927 L 606 927 L 607 926 L 617 926 L 618 925 L 621 925 L 622 924 L 625 924 L 626 923 L 627 923 L 628 922 L 629 922 L 630 921 L 631 921 L 633 919 L 634 919 L 636 917 L 637 917 L 642 912 L 642 911 L 645 908 L 645 907 L 646 906 L 646 905 L 647 904 L 647 902 L 648 901 L 648 899 L 649 898 L 649 891 L 650 890 L 650 881 L 649 880 L 649 870 L 648 869 L 648 860 L 647 859 L 647 851 L 646 850 L 647 849 L 647 848 L 646 847 L 646 839 L 645 838 L 645 830 L 644 829 L 644 822 L 643 821 L 643 813 L 642 812 L 642 805 L 641 804 L 641 796 L 640 795 L 641 794 L 641 793 L 640 792 L 640 788 L 639 787 L 640 786 L 640 785 L 639 784 L 639 776 L 638 775 L 638 767 L 637 766 L 637 760 L 636 759 L 636 752 L 635 751 L 635 746 L 634 745 L 634 741 L 633 740 L 633 737 L 632 736 L 632 734 L 631 733 L 631 731 L 630 730 L 630 728 L 629 727 L 629 726 L 628 725 L 628 722 L 627 721 L 627 720 L 626 719 L 626 718 L 625 717 L 625 716 L 624 715 L 624 714 L 623 713 L 623 712 L 622 711 L 622 710 L 621 709 L 621 708 L 619 706 L 619 705 L 618 704 L 618 703 L 617 702 L 617 701 L 615 699 L 615 698 L 613 696 L 613 695 L 610 692 L 610 691 L 606 687 L 606 686 L 589 669 L 588 669 L 583 664 L 582 664 L 580 662 L 579 662 L 577 660 L 576 660 L 574 658 L 573 658 L 571 656 L 570 656 L 569 655 L 568 655 L 567 654 L 566 654 L 565 653 L 564 653 L 563 652 L 562 652 L 561 651 L 560 651 L 559 650 L 558 650 L 557 649 L 556 649 L 555 648 L 553 648 L 552 647 L 551 647 L 550 646 L 549 646 L 548 645 L 546 645 L 545 644 L 543 644 L 542 643 L 540 643 L 539 642 L 537 642 L 536 641 L 535 641 L 534 640 L 532 640 L 531 639 L 528 639 L 527 638 L 525 638 L 524 637 L 523 637 L 522 636 L 519 636 L 518 635 L 516 635 L 515 634 L 513 634 L 512 633 L 510 633 L 509 632 L 507 632 L 506 631 L 504 631 L 503 630 L 501 630 L 500 629 L 498 629 L 497 628 L 496 628 L 495 627 L 493 627 L 492 626 L 489 626 L 488 625 L 486 625 L 485 624 L 484 624 L 483 623 L 481 623 L 480 622 L 478 622 L 477 621 L 475 621 L 474 620 L 473 620 L 472 619 L 470 619 L 469 618 L 468 618 L 467 617 L 466 617 L 465 616 L 463 616 L 462 615 L 461 615 L 457 611 L 457 610 L 454 607 L 454 606 L 452 604 L 452 603 L 451 602 L 451 601 L 450 600 L 450 599 L 449 598 L 449 597 L 448 596 L 448 594 L 447 593 L 447 592 L 446 591 L 446 589 L 445 588 L 445 586 L 444 585 L 444 582 L 443 581 L 443 576 L 442 575 L 442 560 L 445 557 L 445 556 L 446 555 L 447 555 L 448 554 L 448 553 L 451 550 L 451 549 L 454 546 L 454 545 L 456 543 L 456 542 L 457 541 L 457 540 L 459 538 L 459 537 L 460 536 L 460 535 L 461 534 L 461 533 L 462 532 L 462 531 L 463 530 L 463 529 L 464 528 L 464 527 L 465 526 L 465 524 L 466 523 L 466 522 L 467 521 L 467 520 L 468 519 L 468 517 L 469 516 L 469 514 L 470 513 L 470 511 L 471 510 L 471 508 L 472 507 L 472 505 L 473 504 L 473 502 L 474 501 L 474 499 L 475 498 L 475 497 L 477 495 L 478 495 L 479 494 L 480 494 L 481 493 L 482 493 L 484 491 L 485 491 L 489 487 L 490 487 L 492 485 L 492 484 L 497 479 L 497 478 L 499 476 L 499 475 L 501 473 L 501 472 L 502 471 L 502 470 L 503 469 L 503 468 L 504 467 L 504 465 L 505 464 L 505 463 L 506 462 L 506 461 L 507 460 L 507 458 L 508 457 L 508 455 L 509 454 L 509 452 L 510 451 L 510 447 L 511 446 L 511 443 L 512 442 L 512 441 L 511 440 L 512 439 L 512 432 L 513 431 L 513 426 L 512 425 L 512 417 L 511 416 L 511 413 L 510 412 L 510 410 L 509 409 L 509 407 L 508 406 L 508 405 L 507 404 L 507 403 L 505 401 L 505 400 L 501 396 L 501 395 L 500 395 L 497 392 L 496 392 L 493 389 L 493 385 L 494 384 L 494 376 L 495 375 L 495 369 L 496 368 L 495 367 L 496 366 L 496 359 L 497 358 L 497 350 L 498 349 L 498 332 L 499 331 L 499 323 L 498 322 L 498 309 L 497 308 L 497 306 L 496 305 L 497 304 L 496 303 L 496 299 L 495 298 L 495 295 L 494 294 L 494 291 L 493 290 L 493 288 L 492 287 L 492 285 L 491 284 L 491 282 L 490 281 L 490 279 L 489 278 L 489 277 L 488 276 L 488 275 L 487 274 L 487 273 L 486 272 L 486 271 L 485 270 L 485 269 L 483 267 L 483 266 L 481 264 L 481 263 L 478 260 L 478 259 L 472 253 L 471 253 L 468 250 L 467 250 L 464 247 L 463 247 L 462 246 L 461 246 L 460 245 L 459 245 L 458 244 L 456 244 L 455 243 L 453 243 L 452 242 L 447 242 L 446 241 L 442 241 L 439 238 L 439 237 L 436 234 L 436 233 L 430 227 L 429 227 L 427 225 L 426 225 L 424 223 L 423 223 L 422 222 L 421 222 L 420 221 L 419 221 L 417 219 L 416 219 L 415 218 L 414 218 L 413 217 L 411 217 L 410 216 L 409 216 L 408 215 L 406 215 L 405 214 L 404 214 L 403 213 L 401 213 L 400 212 L 398 212 L 397 211 L 394 211 L 393 210 L 390 210 L 389 209 L 387 209 L 386 208 L 381 208 L 380 207 L 376 207 L 375 206 L 374 206 L 373 207 L 372 206 L 369 206 L 368 205 Z" fill="white"/><path d="M 833 55 L 832 56 L 830 56 L 829 57 L 826 57 L 825 58 L 823 58 L 822 59 L 820 59 L 819 60 L 817 60 L 816 61 L 813 61 L 812 62 L 810 62 L 809 63 L 807 63 L 806 64 L 804 64 L 803 65 L 801 65 L 800 66 L 798 66 L 797 67 L 794 67 L 793 68 L 791 68 L 790 69 L 788 69 L 787 70 L 785 70 L 784 71 L 781 71 L 780 72 L 778 72 L 777 73 L 775 73 L 774 74 L 772 74 L 771 75 L 769 75 L 768 76 L 766 76 L 765 77 L 763 77 L 762 78 L 761 78 L 760 79 L 758 79 L 757 80 L 756 80 L 755 81 L 753 81 L 752 82 L 750 82 L 749 83 L 748 83 L 747 84 L 746 84 L 745 85 L 743 85 L 742 86 L 741 86 L 740 87 L 738 87 L 737 88 L 735 88 L 734 89 L 733 89 L 732 90 L 731 90 L 730 91 L 729 91 L 728 92 L 727 92 L 726 93 L 725 93 L 724 94 L 723 94 L 722 95 L 721 95 L 720 96 L 719 96 L 718 97 L 717 97 L 716 98 L 715 98 L 713 100 L 712 100 L 711 101 L 710 101 L 709 102 L 708 102 L 707 103 L 706 103 L 704 105 L 703 105 L 702 106 L 701 106 L 700 107 L 699 107 L 697 109 L 696 109 L 695 110 L 694 110 L 692 112 L 691 112 L 689 114 L 688 114 L 686 116 L 685 116 L 682 119 L 681 119 L 677 123 L 676 123 L 671 128 L 670 128 L 669 129 L 669 130 L 668 131 L 667 131 L 653 145 L 653 146 L 644 155 L 644 156 L 640 160 L 640 161 L 637 164 L 637 165 L 635 167 L 635 168 L 633 170 L 633 171 L 632 172 L 632 173 L 631 174 L 631 175 L 629 177 L 629 178 L 627 180 L 627 182 L 625 184 L 625 185 L 624 186 L 624 187 L 623 188 L 623 189 L 622 190 L 622 191 L 621 192 L 621 193 L 620 194 L 620 195 L 619 196 L 619 197 L 618 198 L 618 199 L 617 200 L 617 202 L 616 203 L 616 204 L 615 205 L 615 207 L 614 208 L 614 209 L 613 210 L 613 213 L 612 214 L 612 215 L 611 216 L 611 218 L 610 219 L 610 221 L 609 222 L 609 224 L 608 225 L 608 228 L 607 229 L 607 231 L 606 232 L 606 235 L 605 236 L 605 239 L 604 240 L 604 244 L 603 245 L 603 252 L 602 253 L 602 259 L 601 260 L 601 273 L 600 274 L 600 284 L 599 285 L 544 285 L 543 286 L 542 286 L 541 287 L 540 287 L 538 289 L 538 290 L 537 291 L 537 292 L 536 293 L 536 301 L 537 302 L 537 303 L 540 306 L 541 306 L 542 307 L 545 307 L 546 308 L 914 308 L 915 309 L 918 309 L 919 310 L 920 310 L 921 311 L 922 311 L 925 314 L 926 314 L 927 315 L 927 316 L 929 318 L 929 320 L 930 321 L 930 342 L 929 343 L 929 692 L 930 693 L 930 868 L 929 869 L 929 870 L 927 872 L 927 873 L 924 876 L 923 876 L 921 878 L 919 878 L 918 879 L 695 879 L 694 880 L 693 880 L 692 881 L 691 881 L 690 882 L 689 882 L 689 883 L 687 885 L 687 895 L 688 896 L 688 897 L 690 899 L 691 899 L 692 900 L 693 900 L 694 901 L 922 901 L 923 900 L 926 900 L 927 899 L 929 899 L 930 898 L 931 898 L 932 897 L 933 897 L 935 895 L 936 895 L 939 892 L 940 892 L 945 887 L 945 886 L 947 884 L 947 883 L 948 882 L 948 881 L 949 880 L 949 879 L 950 878 L 950 876 L 951 875 L 951 873 L 952 872 L 952 863 L 953 862 L 953 660 L 952 659 L 952 414 L 953 413 L 953 391 L 952 390 L 952 341 L 953 340 L 953 327 L 952 326 L 952 316 L 951 315 L 951 313 L 950 312 L 950 310 L 949 309 L 949 308 L 948 307 L 948 306 L 947 305 L 947 304 L 944 301 L 944 300 L 941 297 L 940 297 L 939 296 L 939 295 L 938 294 L 937 294 L 935 292 L 934 292 L 933 291 L 932 291 L 931 290 L 930 290 L 929 289 L 927 289 L 926 288 L 924 288 L 923 287 L 921 287 L 920 286 L 916 286 L 915 285 L 824 285 L 823 284 L 823 283 L 824 282 L 824 281 L 825 280 L 825 279 L 827 277 L 827 276 L 828 275 L 828 274 L 829 273 L 829 272 L 830 271 L 830 270 L 831 269 L 831 268 L 833 266 L 833 264 L 835 262 L 835 260 L 836 259 L 836 258 L 837 257 L 837 256 L 838 255 L 838 253 L 839 252 L 839 251 L 840 250 L 840 248 L 841 247 L 841 246 L 842 245 L 842 243 L 843 242 L 843 240 L 844 239 L 844 237 L 845 236 L 845 234 L 846 233 L 846 231 L 847 230 L 847 227 L 848 226 L 848 224 L 849 223 L 849 220 L 850 219 L 850 216 L 851 215 L 851 210 L 852 209 L 852 204 L 853 203 L 853 197 L 854 196 L 854 193 L 855 192 L 855 184 L 856 183 L 855 182 L 855 181 L 856 180 L 856 168 L 857 167 L 857 136 L 856 135 L 856 119 L 855 118 L 855 111 L 854 110 L 854 102 L 853 101 L 853 95 L 852 94 L 853 93 L 853 92 L 852 91 L 852 85 L 851 84 L 851 78 L 850 77 L 850 66 L 849 65 L 849 62 L 848 61 L 848 60 L 844 56 L 843 56 L 842 55 Z" fill="white"/>
</svg>