<svg xmlns="http://www.w3.org/2000/svg" viewBox="0 0 24 24" fill="white">
  <path d="M12 .5C5.7.5.5 5.8.5 12.2c0 5.2 3.4 9.6 8.1 11.1.6.1.8-.3.8-.6v-2c-3.3.7-4-1.6-4-1.6-.5-1.3-1.2-1.6-1.2-1.6-1-.7.1-.7.1-.7 1.1.1 1.6 1.2 1.6 1.2 1 .1.3 1.8 1.5 2.3.2.6.8 1 .9 1.1.6.1.6-.2.6-.5v-2c0-.6.2-1.1.5-1.4-2.7-.3-5.5-1.4-5.5-6 0-1.3.5-2.4 1.2-3.3-.1-.3-.5-1.7.1-3.5 0 0 1-.3 3.3 1.2a11.4 11.4 0 0 1 6 0C18.8 6.2 19.8 6.5 19.8 6.5c.6 1.8.2 3.2.1 3.5.8.9 1.2 2 1.2 3.3 0 4.6-2.8 5.6-5.5 6 .3.3.6.9.6 1.8v2.6c0 .3.3.7.8.6 4.7-1.5 8.1-5.9 8.1-11.1C23.5 5.8 18.3.5 12 .5z"/>
</svg>