<svg xmlns="http://www.w3.org/2000/svg" viewBox="0 0 24 24" fill="white">
  <path d="M12 0C5.4 0 0 5.4 0 12c0 2.1.6 4.2 1.7 6L0 24l6.3-1.6a11.9 11.9 0 0 0 5.7 1.5c6.6 0 12-5.4 12-12S18.6 0 12 0zm0 21.5c-1.8 0-3.6-.5-5.2-1.4l-.4-.2-3.7 1 1-3.6-.2-.4A9.6 9.6 0 0 1 2.5 12 9.5 9.5 0 1 1 12 21.5zm5.2-7.3c-.3-.2-1.5-.7-1.8-.8-.3-.1-.5-.2-.7.2s-.8.8-1 .9c-.2.1-.4.1-.7 0-.3-.2-1.3-.5-2.4-1.5a9.1 9.1 0 0 1-1.6-2c-.2-.3 0-.5.2-.7.2-.2.4-.5.5-.7.2-.2.1-.4 0-.7 0-.2-.6-1.5-.8-2.1-.2-.5-.5-.5-.7-.5H8c-.2 0-.5 0-.8.3s-1 1-1 2.5 1 2.8 1.1 3c.2.3 2.1 3.2 5.2 4.5 1 .5 1.7.8 2.3 1 1 .3 1.8.3 2.2.2.6-.1 1.5-.6 1.7-1.2.2-.6.2-1.2.2-1.3 0-.1-.3-.2-.6-.4z"/>
</svg>